<?xml version="1.0" encoding="UTF-8"?>
<svg id="Layer_2" data-name="Layer 2" xmlns="http://www.w3.org/2000/svg" viewBox="0 0 16 16">
  <defs>
    <style>
      .cls-1 {
        fill: #fff;
      }
    </style>
  </defs>
  <g id="Layer_3" data-name="Layer 3">
    <path class="cls-1" d="M8,0C3.58,0,0,3.58,0,8s3.58,8,8,8,8-3.58,8-8S12.42,0,8,0ZM13.65,4.83h-2.07c-.54,1.72-1.42,3.27-2.64,4.63l1.79,1.77-.54,1.43-2.19-2.19-3.53,3.53-1-1,3.59-3.54c-.87-.98-1.57-2.03-2.1-3.22h1.41c.45.87.98,1.63,1.63,2.36,1-1.11,1.75-2.38,2.23-3.78H2.35v-1.41h4.94v-1.41h1.41v1.41h4.95v1.42Z"/>
  </g>
</svg>