<?xml version="1.0" encoding="UTF-8"?>
<svg id="Layer_3" data-name="Layer 3" xmlns="http://www.w3.org/2000/svg" viewBox="0 0 512 512">
  <defs>
    <style>
      .cls-1 {
        fill: #fff;
      }

      .cls-2 {
        fill: #478cbf;
      }

      .cls-3 {
        fill: none;
        stroke: #478cbf;
        stroke-linejoin: round;
        stroke-width: 2.25px;
      }

      .cls-4 {
        fill: #414042;
      }
    </style>
  </defs>
  <g>
    <path class="cls-2" d="M465.4,146.88c-7.12-10.86-15.04-21.05-23.42-30.72-5.32-6.15-14.26-7.76-21.38-3.82-5.22,2.89-10.36,5.9-15.4,9-6.22,3.83-14.17,3.39-19.87-1.18-3.46-2.78-7.03-5.43-10.55-8.14-3.71-2.97-7.67-5.5-11.69-7.95-5.67-3.45-8.89-9.86-8.19-16.47.87-8.25,1.47-16.49,1.86-24.86.35-7.19-3.75-13.9-10.37-16.74-10.87-4.68-22.09-8.4-33.46-11.43-7.73-2.06-15.9,1.34-19.72,8.36-3.35,6.17-6.55,12.47-9.57,18.79-3.09,6.44-9.79,10.3-16.91,9.79-3.53-.25-7.07-.38-10.61-.42v-.02c-.05,0-.1.02-.15.02-.04,0-.09-.02-.14-.02v.02c-3.55.04-7.09.17-10.62.42-7.12.51-13.82-3.36-16.91-9.8-3.02-6.31-6.22-12.61-9.57-18.78-3.82-7.02-11.99-10.42-19.71-8.36-11.37,3.03-22.59,6.75-33.47,11.43-6.62,2.84-10.71,9.55-10.37,16.74.4,8.37,1,16.61,1.87,24.86.69,6.6-2.53,13.01-8.2,16.47-4.01,2.45-7.98,4.98-11.68,7.95-3.53,2.72-7.09,5.37-10.57,8.15-5.69,4.56-13.64,5-19.85,1.17-5.05-3.1-10.19-6.11-15.41-9-7.12-3.94-16.05-2.33-21.38,3.82-8.36,9.66-16.27,19.82-23.37,30.65-3.79,5.79-3.77,13.28.04,19.06,5.47,8.29,11.06,16.33,16.46,23.39,2.37,3.09,3.68,6.86,3.68,10.76v102.29c0,3.3,2.51,6.06,5.79,6.38l64.9,6.27c3.66.35,6.53,3.3,6.79,6.97l1.77,25.33c.22,3.18,2.75,5.72,5.93,5.94l49.54,3.54c3.35.24,6.31-2.14,6.8-5.46l3.33-22.62c.55-3.69,3.72-6.43,7.46-6.43h73.79c3.73,0,6.91,2.74,7.45,6.43l3.34,22.62c.49,3.32,3.45,5.7,6.79,5.46l49.54-3.54c3.18-.22,5.72-2.76,5.94-5.94l1.77-25.33c.25-3.67,3.12-6.62,6.79-6.97l64.87-6.27c3.28-.32,5.79-3.08,5.79-6.38v-102.28c0-3.88,1.28-7.64,3.63-10.72,5.94-7.77,11.61-15.85,16.61-23.45,3.79-5.75,3.79-13.21,0-18.98ZM156.82,282.56c-23.27,0-42.15-18.87-42.15-42.16s18.88-42.13,42.15-42.13,42.15,18.86,42.15,42.13-18.87,42.16-42.15,42.16ZM269.55,274.06c0,6.81-6.09,12.34-13.58,12.34s-13.57-5.53-13.57-12.34v-38.8c0-6.8,6.07-12.33,13.57-12.33s13.58,5.53,13.58,12.33v38.8ZM355.13,282.56c-23.28,0-42.15-18.87-42.15-42.16s18.87-42.13,42.15-42.13,42.14,18.86,42.14,42.13-18.87,42.16-42.14,42.16Z"/>
    <path class="cls-1" d="M156.82,198.27c-23.27,0-42.15,18.86-42.15,42.13s18.88,42.16,42.15,42.16,42.15-18.87,42.15-42.16-18.87-42.13-42.15-42.13ZM160.85,270.87c-15.45,0-27.98-12.52-27.98-27.97s12.53-27.98,27.98-27.98,27.98,12.54,27.98,27.98-12.52,27.97-27.98,27.97Z"/>
    <path class="cls-1" d="M269.55,235.26v38.8c0,6.81-6.09,12.34-13.58,12.34s-13.57-5.53-13.57-12.34v-38.8c0-6.8,6.07-12.33,13.57-12.33s13.58,5.53,13.58,12.33Z"/>
    <path class="cls-1" d="M355.13,198.27c-23.28,0-42.15,18.86-42.15,42.13s18.87,42.16,42.15,42.16,42.14-18.87,42.14-42.16-18.87-42.13-42.14-42.13ZM351.08,270.87c-15.44,0-27.96-12.52-27.96-27.97s12.52-27.98,27.96-27.98,27.98,12.54,27.98,27.98-12.51,27.97-27.98,27.97Z"/>
    <path class="cls-4" d="M188.83,242.9c0,15.45-12.52,27.97-27.98,27.97s-27.98-12.52-27.98-27.97,12.53-27.98,27.98-27.98,27.98,12.54,27.98,27.98Z"/>
    <path class="cls-4" d="M379.06,242.9c0,15.45-12.51,27.97-27.98,27.97s-27.96-12.52-27.96-27.97,12.52-27.98,27.96-27.98,27.98,12.54,27.98,27.98Z"/>
  </g>
  <g>
    <g>
      <path class="cls-2" d="M227.38,433.24c-3.1,0-5.61,2.51-5.61,5.61s2.51,5.61,5.61,5.61,5.61-2.51,5.61-5.61-2.51-5.61-5.61-5.61Z"/>
      <path class="cls-2" d="M190.84,423.16c-3.1,0-5.61,2.51-5.61,5.61s2.51,5.61,5.61,5.61,5.61-2.51,5.61-5.61-2.51-5.61-5.61-5.61Z"/>
      <path class="cls-2" d="M165.58,449.11c-3.1,0-5.61,2.51-5.61,5.61s2.51,5.61,5.61,5.61,5.61-2.51,5.61-5.61-2.51-5.61-5.61-5.61Z"/>
      <path class="cls-2" d="M134.85,429.53c-3.1,0-5.61,2.51-5.61,5.61s2.51,5.61,5.61,5.61,5.61-2.51,5.61-5.61-2.51-5.61-5.61-5.61Z"/>
      <path class="cls-2" d="M143.91,398.66c-3.1,0-5.61,2.51-5.61,5.61s2.51,5.61,5.61,5.61,5.61-2.51,5.61-5.61-2.51-5.61-5.61-5.61Z"/>
      <path class="cls-2" d="M203.58,398.66c-3.1,0-5.61,2.51-5.61,5.61s2.51,5.61,5.61,5.61,5.61-2.51,5.61-5.61-2.51-5.61-5.61-5.61Z"/>
      <circle class="cls-2" cx="107.34" cy="380.14" r="5.61"/>
      <path class="cls-2" d="M85.96,378.74c-3.1,0-5.61,2.51-5.61,5.61s2.51,5.61,5.61,5.61,5.61-2.51,5.61-5.61-2.51-5.61-5.61-5.61Z"/>
      <path class="cls-2" d="M72.42,347.15c-3.1,0-5.61,2.51-5.61,5.61s2.51,5.61,5.61,5.61,5.61-2.51,5.61-5.61-2.51-5.61-5.61-5.61Z"/>
      <circle class="cls-2" cx="92.91" cy="361.3" r="5.61"/>
      <path class="cls-2" d="M72.39,335.63c3.1,0,5.61-2.51,5.61-5.61s-2.51-5.61-5.61-5.61-5.61,2.51-5.61,5.61,2.51,5.61,5.61,5.61Z"/>
      <path class="cls-2" d="M136.75,336.3c0-3.1-2.51-5.61-5.61-5.61s-5.61,2.51-5.61,5.61,2.51,5.61,5.61,5.61,5.61-2.51,5.61-5.61Z"/>
      <circle class="cls-2" cx="140.91" cy="374.53" r="5.61"/>
      <path class="cls-2" d="M195.85,384.3c3.1,0,5.61-2.51,5.61-5.61s-2.51-5.61-5.61-5.61-5.61,2.51-5.61,5.61,2.51,5.61,5.61,5.61Z"/>
      <circle class="cls-2" cx="222.79" cy="381.76" r="5.61"/>
      <path class="cls-2" d="M235.63,355.7c3.1,0,5.61-2.51,5.61-5.61s-2.51-5.61-5.61-5.61-5.61,2.51-5.61,5.61,2.51,5.61,5.61,5.61Z"/>
      <path class="cls-2" d="M236.96,466.8c-3.1,0-5.61,2.51-5.61,5.61s2.51,5.61,5.61,5.61,5.61-2.51,5.61-5.61-2.51-5.61-5.61-5.61Z"/>
    </g>
    <path class="cls-3" d="M227.38,438.85l28.6-.13-19.02,33.68-9.59-33.56,28.6,20.16-28.6-20.16,28.6-26.33-33.19-30.77,12.84-31.67h20.35-20.35l20.35,62.44-52.4-8.26h-59.67l-36.57-24.13-21.38,4.21-13.54-31.59-.03-22.75,58.75,6.28-58.72,16.47,20.5,8.54-6.95,23.05,21.38-4.21,23.79-43.85,9.77,38.23-47.99-13.23,38.22-25.01,9.77,38.23-68.52-44.51,20.53,31.29,14.43,18.84,33.56-5.61,54.95,4.16,60.12,33.84-65.14,16.25,12.74-24.51-12.74,24.51s20.41,10.08,36.54,10.08l-4.59-57.09-78.88,22.51,46.93,24.51-25.26,25.95-30.73-19.58,9.06-30.88-2.96-29.92,49.88,54.42-55.99,6.37,68.73-30.88,19.21-22.51"/>
    <g>
      <g>
        <path class="cls-2" d="M284.55,433.24c3.1,0,5.61,2.51,5.61,5.61s-2.51,5.61-5.61,5.61c-3.1,0-5.61-2.51-5.61-5.61s2.51-5.61,5.61-5.61Z"/>
        <path class="cls-2" d="M321.09,423.16c3.1,0,5.61,2.51,5.61,5.61,0,3.1-2.51,5.61-5.61,5.61-3.1,0-5.61-2.51-5.61-5.61s2.51-5.61,5.61-5.61Z"/>
        <path class="cls-2" d="M346.35,449.11c3.1,0,5.61,2.51,5.61,5.61s-2.51,5.61-5.61,5.61-5.61-2.51-5.61-5.61,2.51-5.61,5.61-5.61Z"/>
        <path class="cls-2" d="M377.08,429.53c3.1,0,5.61,2.51,5.61,5.61,0,3.1-2.51,5.61-5.61,5.61s-5.61-2.51-5.61-5.61,2.51-5.61,5.61-5.61Z"/>
        <path class="cls-2" d="M368.02,398.66c3.1,0,5.61,2.51,5.61,5.61s-2.51,5.61-5.61,5.61-5.61-2.51-5.61-5.61c0-3.1,2.51-5.61,5.61-5.61Z"/>
        <path class="cls-2" d="M308.35,398.66c3.1,0,5.61,2.51,5.61,5.61s-2.51,5.61-5.61,5.61-5.61-2.51-5.61-5.61,2.51-5.61,5.61-5.61Z"/>
        <circle class="cls-2" cx="404.59" cy="380.14" r="5.61"/>
        <path class="cls-2" d="M425.97,378.74c3.1,0,5.61,2.51,5.61,5.61s-2.51,5.61-5.61,5.61-5.61-2.51-5.61-5.61,2.51-5.61,5.61-5.61Z"/>
        <path class="cls-2" d="M439.51,347.15c3.1,0,5.61,2.51,5.61,5.61s-2.51,5.61-5.61,5.61-5.61-2.51-5.61-5.61,2.51-5.61,5.61-5.61Z"/>
        <circle class="cls-2" cx="419.01" cy="361.3" r="5.61"/>
        <path class="cls-2" d="M439.54,335.63c-3.1,0-5.61-2.51-5.61-5.61s2.51-5.61,5.61-5.61,5.61,2.51,5.61,5.61-2.51,5.61-5.61,5.61Z"/>
        <path class="cls-2" d="M375.18,336.3c0-3.1,2.51-5.61,5.61-5.61,3.1,0,5.61,2.51,5.61,5.61,0,3.1-2.51,5.61-5.61,5.61s-5.61-2.51-5.61-5.61Z"/>
        <circle class="cls-2" cx="371.02" cy="374.53" r="5.61"/>
        <path class="cls-2" d="M316.07,384.3c-3.1,0-5.61-2.51-5.61-5.61,0-3.1,2.51-5.61,5.61-5.61s5.61,2.51,5.61,5.61c0,3.1-2.51,5.61-5.61,5.61Z"/>
        <circle class="cls-2" cx="289.14" cy="381.76" r="5.61"/>
        <path class="cls-2" d="M276.3,355.7c-3.1,0-5.61-2.51-5.61-5.61,0-3.1,2.51-5.61,5.61-5.61s5.61,2.51,5.61,5.61-2.51,5.61-5.61,5.61Z"/>
        <path class="cls-2" d="M274.97,466.8c3.1,0,5.61,2.51,5.61,5.61s-2.51,5.61-5.61,5.61-5.61-2.51-5.61-5.61,2.51-5.61,5.61-5.61Z"/>
      </g>
      <path class="cls-3" d="M284.55,438.85l-28.6-.13,19.02,33.68,9.59-33.56-28.6,20.16,28.6-20.16-28.6-26.33,33.19-30.77-12.84-31.67h-20.35s20.35,0,20.35,0l-20.35,62.44,52.4-8.26h59.67s36.57-24.13,36.57-24.13l21.38,4.21,13.54-31.59.03-22.75-58.75,6.28,58.72,16.47-20.5,8.54,6.95,23.05-21.38-4.21-23.79-43.85-9.77,38.23,47.99-13.23-38.22-25.01-9.77,38.23,68.52-44.51-20.53,31.29-14.43,18.84-33.56-5.61-54.95,4.16-60.12,33.84,65.14,16.25-12.74-24.51,12.74,24.51s-20.41,10.08-36.54,10.08l4.59-57.09,78.88,22.51-46.93,24.51,25.26,25.95,30.73-19.58-9.06-30.88,2.96-29.92-49.88,54.42,55.99,6.37-68.73-30.88-19.21-22.51"/>
    </g>
    <g>
      <circle class="cls-2" cx="255.98" cy="412.53" r="19.49"/>
      <path class="cls-1" d="M247.39,427.14l-2.45-2.43,8.75-8.64c-2.11-2.37-3.83-4.94-5.12-7.84h3.44c1.09,2.11,2.37,3.98,3.97,5.75,2.43-2.71,4.25-5.79,5.44-9.21h-19.21s0-3.43,0-3.43h12.04s0-3.44,0-3.44h3.44s0,3.44,0,3.44h12.04s0,3.45,0,3.45h-5.04c-1.31,4.2-3.46,7.98-6.43,11.29l4.36,4.32-1.31,3.49-5.35-5.34-8.59,8.59Z"/>
    </g>
  </g>
</svg>